# xmcd
#
# Track frame offsets: 
#        150
#        14192
#        28154
#        48580
#        71172
#        86663
#        103204
#        117935
#        136791
#        152759
#        165244
#        185677
#        204738
#        227904
#        240867
#        257890
#        275682
#        294732
#        306249
#
# Disc length: 4365 seconds
#
# Revision: 0
# Processed by: cddbd v1.5.2PL0 Copyright (c) Steve Scherf et al.
# Submitted via: ExactAudioCopy v0.99pb4
#
DISCID=1e110b13
DTITLE=Michael Bublé - Honk Kong 2CD
DYEAR=2009
DGENRE=Blues
TTITLE0=The Best is yet to Come
TTITLE1=It had Better be Tonight
TTITLE2=Me and Mrs Jones
TTITLE3=I'm your Man
TTITLE4=Comin'home baby
TTITLE5=Lost
TTITLE6=Call Me Irresponsible
TTITLE7=Wonderful Tonight
TTITLE8=Everything
TTITLE9=I've got the World on a String
TTITLE10=Always on my mind
TTITLE11=That's life
TTITLE12=Dream
TTITLE13=L-O-V-E
TTITLE14=Home
TTITLE15=Feeling Good
TTITLE16=You don't Know Me
TTITLE17=A Foggy Day
TTITLE18=Quando Quando Quando
EXTD=
EXTT0=
EXTT1=
EXTT2=
EXTT3=
EXTT4=
EXTT5=
EXTT6=
EXTT7=
EXTT8=
EXTT9=
EXTT10=
EXTT11=
EXTT12=
EXTT13=
EXTT14=
EXTT15=
EXTT16=
EXTT17=
EXTT18=
PLAYORDER=
